<svg xmlns="http://www.w3.org/2000/svg" width="420" height="420" viewBox="0 0 420 420">
  <g transform="translate(-960 -5456)">
    <path d="M200.829,30.827a30,30,0,0,0,30,30H318.41l-87.582,87.567L172.046,89.61a30,30,0,0,0-42.433,0l-120,120a30,30,0,1,0,42.422,42.422l98.783-98.79L209.6,212.021a30,30,0,0,0,42.434,0L360.829,103.229v87.582a30,30,0,0,0,60,0V30.692a29.909,29.909,0,0,0-8.685-21l-.195-.195A29.909,29.909,0,0,0,390.828.828h-160a30,30,0,0,0-30,30Z" transform="translate(959.173 5535.172)" fill="#3f83f8"/>
  </g>
</svg>
